<svg width="46" height="46" viewBox="0 0 46 46" fill="none" xmlns="http://www.w3.org/2000/svg">
<rect width="46" height="46" rx="2" fill="black"/>
<g clip-path="url(#clip0_1962_7822)">
<path d="M19.4583 32.8572C21.2433 32.8572 22.692 31.3852 22.692 29.5715V26.2858H19.4583C17.6733 26.2858 16.2246 27.7578 16.2246 29.5715C16.2246 31.3852 17.6733 32.8572 19.4583 32.8572Z" fill="#0ACF83"/>
<path d="M16.2246 22.9999C16.2246 21.1862 17.6733 19.7142 19.4583 19.7142H22.692V26.2856H19.4583C17.6733 26.2856 16.2246 24.8136 16.2246 22.9999Z" fill="#A259FF"/>
<path d="M16.2246 16.4285C16.2246 14.6148 17.6733 13.1428 19.4583 13.1428H22.692V19.7142H19.4583C17.6733 19.7142 16.2246 18.2423 16.2246 16.4285Z" fill="#F24E1E"/>
<path d="M22.6914 13.1428H25.9252C27.7102 13.1428 29.1589 14.6148 29.1589 16.4285C29.1589 18.2423 27.7102 19.7142 25.9252 19.7142H22.6914V13.1428Z" fill="#FF7262"/>
<path d="M29.1589 22.9999C29.1589 24.8136 27.7102 26.2856 25.9252 26.2856C24.1401 26.2856 22.6914 24.8136 22.6914 22.9999C22.6914 21.1862 24.1401 19.7142 25.9252 19.7142C27.7102 19.7142 29.1589 21.1862 29.1589 22.9999Z" fill="#1ABCFE"/>
</g>
<defs>
<clipPath id="clip0_1962_7822">
<rect width="19.7143" height="19.7143" fill="white" transform="translate(13.1426 13.1428)"/>
</clipPath>
</defs>
</svg>
