<svg width="46" height="46" viewBox="0 0 46 46" fill="none" xmlns="http://www.w3.org/2000/svg">
<rect width="46" height="46" rx="2" fill="#FF4500"/>
<path d="M22.9997 32.8572C28.4437 32.8572 32.8569 28.444 32.8569 23C32.8569 17.5561 28.4437 13.1429 22.9997 13.1429C17.5558 13.1429 13.1426 17.5561 13.1426 23C13.1426 28.444 17.5558 32.8572 22.9997 32.8572Z" fill="white"/>
<path d="M29.5744 23C29.5747 22.8115 29.5377 22.6247 29.4657 22.4505C29.3937 22.2763 29.288 22.118 29.1547 21.9847C29.0214 21.8514 28.8631 21.7457 28.6888 21.6737C28.5146 21.6016 28.3279 21.5647 28.1394 21.565C27.7513 21.565 27.3983 21.7178 27.1396 21.9649C26.1516 21.2591 24.7988 20.8004 23.2931 20.7416L23.9518 17.6598L26.0926 18.1184C26.105 18.3856 26.2214 18.6373 26.4169 18.8198C26.6125 19.0022 26.8717 19.1009 27.139 19.0947C27.4064 19.0886 27.6607 18.9781 27.8477 18.7868C28.0346 18.5956 28.1393 18.3387 28.1394 18.0713C28.1392 17.8 28.0313 17.5398 27.8395 17.3479C27.6476 17.1561 27.3874 17.0482 27.1161 17.048C26.9245 17.0485 26.7369 17.1028 26.5747 17.2048C26.4125 17.3067 26.2821 17.4521 26.1985 17.6245L23.8108 17.1186C23.7402 17.1068 23.6696 17.1186 23.6225 17.1539C23.5637 17.1892 23.5284 17.248 23.5168 17.3186L22.7873 20.7533C21.2582 20.8004 19.8819 21.2591 18.8821 21.9767C18.6129 21.7195 18.2547 21.5762 17.8823 21.5768C17.6938 21.5765 17.5071 21.6135 17.3328 21.6855C17.1586 21.7575 17.0003 21.8632 16.867 21.9965C16.7337 22.1298 16.628 22.2881 16.556 22.4624C16.4839 22.6366 16.447 22.8233 16.4473 23.0118C16.4473 23.5999 16.8001 24.0939 17.2943 24.3175C17.2703 24.4613 17.2585 24.6069 17.259 24.7527C17.259 26.9639 19.835 28.7638 23.0109 28.7638C26.1869 28.7638 28.7629 26.9758 28.7629 24.7527C28.7629 24.6115 28.7511 24.4585 28.7276 24.3175C28.9802 24.2021 29.1942 24.0165 29.3443 23.783C29.4944 23.5494 29.5743 23.2776 29.5744 23V23ZM19.7173 24.0233C19.7174 23.7519 19.8253 23.4917 20.0172 23.2998C20.2092 23.1079 20.4694 23.0001 20.7408 23C21.3053 23 21.764 23.4587 21.764 24.0233C21.764 24.5878 21.3053 25.0468 20.7408 25.0468C20.176 25.0584 19.7173 24.5878 19.7173 24.0233V24.0233ZM25.4458 26.7405C24.74 27.4463 23.399 27.4934 23.0109 27.4934C22.611 27.4934 21.27 27.4345 20.5759 26.7405C20.5508 26.716 20.5308 26.6867 20.5172 26.6544C20.5036 26.6221 20.4966 26.5874 20.4966 26.5523C20.4966 26.5172 20.5036 26.4825 20.5172 26.4502C20.5308 26.4178 20.5508 26.3886 20.5759 26.3641C20.6004 26.339 20.6297 26.319 20.662 26.3054C20.6943 26.2918 20.729 26.2848 20.7641 26.2848C20.7992 26.2848 20.8339 26.2918 20.8662 26.3054C20.8986 26.319 20.9278 26.339 20.9523 26.3641C21.3994 26.8111 22.3405 26.9639 23.0109 26.9639C23.6814 26.9639 24.6341 26.8111 25.0693 26.3641C25.0938 26.339 25.1231 26.319 25.1554 26.3054C25.1878 26.2918 25.2225 26.2848 25.2576 26.2848C25.2926 26.2848 25.3274 26.2918 25.3597 26.3054C25.392 26.319 25.4213 26.339 25.4458 26.3641C25.4913 26.4162 25.5164 26.4831 25.5164 26.5523C25.5164 26.6215 25.4913 26.6884 25.4458 26.7405ZM25.2575 25.0584C24.6929 25.0584 24.2342 24.5997 24.2342 24.0351C24.2342 23.4705 24.6929 23.0118 25.2575 23.0118C25.5288 23.0119 25.7891 23.1198 25.981 23.3117C26.1729 23.5035 26.2808 23.7637 26.281 24.0351C26.281 24.5878 25.8223 25.0584 25.2575 25.0584Z" fill="#FF4500"/>
</svg>
