<svg width="46" height="46" viewBox="0 0 46 46" fill="none" xmlns="http://www.w3.org/2000/svg">
<rect width="46" height="46" rx="2" fill="#EB524F"/>
<g clip-path="url(#clip0_1962_7900)">
<path d="M19.8487 14.9547C20.7274 15.2285 21.0001 15.9357 21.0001 16.7417C20.9926 17.3805 20.9168 18.0192 20.7653 18.6428C20.4396 20.0648 20.0381 21.4716 19.7048 22.8859C19.432 24.0494 19.1821 25.228 19.1745 26.4295C19.1821 26.7565 19.2351 27.0835 19.326 27.3952C19.5002 28.0188 20.0229 28.0644 20.4168 27.6842C20.6668 27.4409 20.8941 27.1823 21.0986 26.901C22.0834 25.5854 22.9546 24.1863 23.6969 22.7186C24.4166 21.3119 26.0604 18.1333 26.1589 17.9432C26.674 16.9927 28.0982 17.1524 28.53 18.0801C28.7724 18.582 28.9088 19.1371 28.9315 19.6922C28.9694 20.8936 29.083 24.2471 29.136 24.7262C29.2345 25.6539 29.8254 25.9504 30.6132 25.4334C31.0905 25.1216 31.5222 24.7262 31.954 24.3536C32.3555 23.9962 32.5676 24.0342 32.7646 24.5361C32.9388 24.9771 32.8631 25.4181 32.7191 25.8364C32.2343 27.2508 31.1814 28.0036 29.7799 28.3078C29.333 28.4066 28.8709 28.4142 28.4164 28.3382C27.4089 28.1709 26.7649 27.5854 26.3786 26.6804C26.0074 25.806 25.8938 23.3194 25.8105 23C25.6741 23.289 24.0606 26.6272 23.2121 27.8971C22.6819 28.7108 22.038 29.4484 21.2956 30.0795C20.5608 30.6955 19.7275 31.0757 18.7503 31.0985C17.5685 31.1289 16.7125 30.589 16.1216 29.5853C15.7429 28.9389 15.5838 28.2165 15.5308 27.4713C15.455 26.4295 15.6217 25.4105 15.8489 24.3916C15.9247 24.0646 15.9777 23.73 16.061 23.3118C15.7353 23.4791 15.5232 23.6312 15.2808 23.7148C14.9929 23.8137 14.6823 23.9125 14.3793 23.9049C13.3036 23.8745 13.1445 22.6806 13.1445 22.4829C13.5081 22.2016 13.8945 21.943 14.2278 21.6389C15.8186 20.194 17.0155 18.4603 17.8791 16.4984C18.167 15.852 18.523 15.2969 19.1593 14.9547C19.3714 14.8635 19.5608 14.8559 19.8487 14.9547Z" fill="white"/>
</g>
<defs>
<clipPath id="clip0_1962_7900">
<rect width="19.7143" height="19.7143" fill="white" transform="translate(13.1426 13.1428)"/>
</clipPath>
</defs>
</svg>
