<?xml version="1.0" encoding="utf-8"?>
<!-- Generator: Adobe Illustrator 26.3.1, SVG Export Plug-In . SVG Version: 6.00 Build 0)  -->
<svg version="1.1" id="Layer_1" xmlns="http://www.w3.org/2000/svg" xmlns:xlink="http://www.w3.org/1999/xlink" x="0px" y="0px"
	 viewBox="0 0 400 100" style="enable-background:new 0 0 400 100;" xml:space="preserve">
<style type="text/css">
	.st0{fill:#B30009;}
	.st1{fill:#231F20;}
	.st2{font-family:'Sansation-Bold';}
	.st3{font-size:54.8902px;}
	.st4{letter-spacing:-5;}
	.st5{letter-spacing:-1;}
	.st6{font-family:'Sansation-Regular';}
</style>
<g>
	<g>
		<path class="st0" d="M99.5,46.7c-4.2,3.2-9,6-14.3,8.1c-2,12.4-11.3,22.3-23.4,25.2V60.4c-2.3,0.2-4.7,0.3-7,0.3
			c-2.4,0-4.7-0.1-7-0.3V80c-12.1-2.8-21.4-12.8-23.4-25.2C19,52.6,14.2,49.9,10,46.7c-0.1,1.1-0.1,2.2-0.1,3.3
			c0,24.8,20.1,44.9,44.9,44.9c24.8,0,44.9-20.1,44.9-44.9C99.6,48.9,99.6,47.8,99.5,46.7"/>
		<path class="st0" d="M54.7,5.1C34.8,5.1,18,18.1,12.1,36c3.8,2.6,8.1,4.9,12.7,6.8C27.5,31.5,36.4,22.7,47.7,20v28.2
			c2.3,0.2,4.7,0.3,7,0.3c2.4,0,4.7-0.1,7-0.3V20C73.1,22.7,82,31.5,84.7,42.8c4.6-1.9,8.9-4.2,12.7-6.8
			C91.5,18.1,74.6,5.1,54.7,5.1"/>
	</g>
	<g>
		<text transform="matrix(1 0 0 1 119.9076 67.4342)"><tspan x="0" y="0" class="st1 st2 st3 st4">T</tspan><tspan x="23.5" y="0" class="st1 st2 st3 st5">o</tspan><tspan x="53.8" y="0" class="st1 st2 st3">p</tspan></text>
		<text transform="matrix(1 0 0 1 203.6156 67.4342)"><tspan x="0" y="0" class="st1 st6 st3 st5">Eq</tspan><tspan x="61.7" y="0" class="st1 st6 st3 st5">ua</tspan><tspan x="121.2" y="0" class="st1 st6 st3 st5">to</tspan><tspan x="168.4" y="0" class="st1 st6 st3">r</tspan></text>
	</g>
</g>
</svg>
