<svg width="24" height="24" viewBox="0 0 24 24" fill="none" xmlns="http://www.w3.org/2000/svg">
<g clip-path="url(#clip0_2640_31323)">
<mask id="path-1-outside-1_2640_31323" maskUnits="userSpaceOnUse" x="-1.02344" y="0.428711" width="26" height="23" fill="black">
<rect fill="white" x="-1.02344" y="0.428711" width="26" height="23"/>
<path d="M8.99985 1.44055C9.05471 1.44015 9.10956 1.43975 9.16609 1.43933C9.22563 1.43938 9.28517 1.43942 9.34652 1.43946C9.41038 1.43918 9.47424 1.43886 9.5381 1.43851C9.71108 1.43768 9.88407 1.43746 10.0571 1.4374C10.1653 1.43733 10.2736 1.43713 10.3819 1.43689C10.7603 1.43602 11.1387 1.43564 11.5171 1.43571C11.8687 1.43577 12.2204 1.43478 12.5721 1.4333C12.8748 1.43207 13.1775 1.43157 13.4803 1.43163C13.6607 1.43165 13.8411 1.43139 14.0216 1.43039C14.1915 1.42948 14.3615 1.42948 14.5314 1.43016C14.6227 1.4303 14.7141 1.42953 14.8054 1.42871C15.4086 1.43298 15.861 1.61745 16.3141 2.01558C16.6632 2.38673 16.938 2.85757 16.9326 3.37752C16.9323 3.42948 16.932 3.48145 16.9317 3.53499C16.9309 3.58853 16.9302 3.64206 16.9293 3.69722C16.9289 3.75185 16.9285 3.80647 16.9281 3.86275C16.927 3.99704 16.9254 4.1313 16.9235 4.26558C16.9575 4.26541 16.9916 4.26524 17.0266 4.26506C17.8553 4.26092 18.6839 4.25781 19.5125 4.25587C19.9132 4.2549 20.3139 4.25358 20.7147 4.25144C21.0639 4.24957 21.4132 4.24836 21.7625 4.24794C21.9474 4.2477 22.1324 4.24712 22.3173 4.24576C22.4914 4.24448 22.6655 4.24409 22.8397 4.24437C22.9339 4.2443 23.0281 4.24329 23.1223 4.24225C23.654 4.24468 23.654 4.24468 23.861 4.45308C23.9762 4.64962 24.0192 4.79301 24.0194 5.02006C24.0198 5.07664 24.0202 5.13321 24.0206 5.1915C24.0204 5.25325 24.0201 5.31501 24.0198 5.37863C24.02 5.44521 24.0202 5.51179 24.0205 5.57837C24.0212 5.76113 24.021 5.94388 24.0207 6.12663C24.0205 6.32382 24.021 6.52101 24.0215 6.7182C24.0223 7.10448 24.0224 7.49075 24.0221 7.87703C24.0219 8.19109 24.022 8.50514 24.0222 8.81919C24.0223 8.86389 24.0223 8.90859 24.0224 8.95464C24.0224 9.04544 24.0225 9.13624 24.0226 9.22704C24.0232 10.0788 24.023 10.9305 24.0224 11.7823C24.022 12.5611 24.0226 13.3399 24.0237 14.1187C24.0248 14.9186 24.0253 15.7185 24.025 16.5184C24.0248 16.9674 24.0249 17.4163 24.0257 17.8653C24.0264 18.2477 24.0264 18.63 24.0256 19.0123C24.0252 19.2073 24.0251 19.4023 24.0259 19.5972C24.0265 19.776 24.0263 19.9547 24.0254 20.1334C24.0251 20.2282 24.0258 20.3229 24.0265 20.4177C24.0216 21.0264 23.8412 21.4799 23.4391 21.9375C23.0374 22.3153 22.5614 22.5622 22.0042 22.5589C21.9691 22.5591 21.9339 22.5592 21.8977 22.5594C21.7798 22.5598 21.662 22.5596 21.5441 22.5594C21.4587 22.5595 21.3734 22.5598 21.2881 22.56C21.0535 22.5606 20.8189 22.5606 20.5843 22.5605C20.3313 22.5604 20.0783 22.561 19.8253 22.5614C19.3296 22.5622 18.834 22.5624 18.3383 22.5625C17.9353 22.5625 17.5324 22.5627 17.1295 22.563C15.9872 22.5639 14.845 22.5643 13.7027 22.5642C13.6411 22.5642 13.5795 22.5642 13.5161 22.5642C13.4544 22.5642 13.3927 22.5642 13.3292 22.5642C12.3299 22.5642 11.3306 22.5651 10.3313 22.5664C9.30528 22.5677 8.27931 22.5684 7.25333 22.5683C6.67728 22.5683 6.10123 22.5685 5.52518 22.5695C5.03468 22.5704 4.54419 22.5706 4.05369 22.5699C3.80347 22.5696 3.55325 22.5696 3.30303 22.5704C3.07382 22.5712 2.84462 22.571 2.61541 22.5702C2.53264 22.5701 2.44986 22.5703 2.36709 22.5708C1.66755 22.5749 1.14979 22.4578 0.610981 21.9843C0.25947 21.6106 -0.00974963 21.1414 -0.0104535 20.6191C-0.0107558 20.5622 -0.0110583 20.5053 -0.0113697 20.4467C-0.0112318 20.384 -0.0110849 20.3213 -0.0109299 20.2586C-0.0111051 20.1916 -0.0113209 20.1247 -0.0115736 20.0577C-0.0121468 19.874 -0.0121348 19.6902 -0.0120242 19.5065C-0.0120051 19.3083 -0.0125223 19.11 -0.0129669 18.9118C-0.0137454 18.5235 -0.0140032 18.1353 -0.0140555 17.747C-0.0141001 17.4315 -0.0142926 17.1159 -0.0145898 16.8004C-0.0154153 15.906 -0.0158482 15.0116 -0.0157779 14.1171C-0.0157722 14.0448 -0.0157721 14.0448 -0.0157664 13.971C-0.0157626 13.9228 -0.0157589 13.8745 -0.015755 13.8248C-0.0157168 13.042 -0.0166145 12.2593 -0.0179358 11.4765C-0.0192815 10.673 -0.0199294 9.86942 -0.0198484 9.06586C-0.0198172 8.61465 -0.0200764 8.16345 -0.0210843 7.71224C-0.0219368 7.32818 -0.0221424 6.94413 -0.0215049 6.56007C-0.0211982 6.36409 -0.0211958 6.16811 -0.022007 5.97213C-0.0227419 5.79274 -0.022613 5.61338 -0.0217932 5.43399C-0.0216487 5.36908 -0.0218215 5.30416 -0.0223425 5.23925C-0.0269369 4.62626 -0.0269366 4.62626 0.189106 4.40621C0.361722 4.2716 0.487886 4.2481 0.704362 4.24867C0.760691 4.24848 0.81702 4.24828 0.875056 4.24808C0.967153 4.24884 0.967153 4.24884 1.06111 4.24962C1.12672 4.24966 1.19234 4.24963 1.25795 4.24955C1.43575 4.24951 1.61354 4.25034 1.79134 4.25132C1.97726 4.2522 2.16319 4.25228 2.34912 4.25245C2.70106 4.25289 3.053 4.25404 3.40494 4.25545C3.80567 4.25703 4.2064 4.2578 4.60713 4.2585C5.43133 4.25997 6.25553 4.26245 7.07973 4.26558C7.07875 4.23278 7.07777 4.19998 7.07676 4.16619C7.07281 4.01476 7.0704 3.86333 7.06801 3.71187C7.06566 3.63451 7.06566 3.63451 7.06325 3.55559C7.05621 2.95855 7.24951 2.5094 7.64223 2.06246C8.0127 1.71397 8.48152 1.44226 8.99985 1.44055ZM8.72915 3.06734C8.40492 3.44715 8.48598 3.73725 8.48598 4.26558C10.8063 4.26558 13.1266 4.26558 15.5172 4.26558C15.5601 3.63636 15.5601 3.63636 15.3092 3.1025C15.068 2.89658 14.8853 2.85366 14.5746 2.85306C14.5274 2.85286 14.4802 2.85266 14.4316 2.85246C14.3804 2.85248 14.3291 2.8525 14.2763 2.85252C14.222 2.85236 14.1676 2.85221 14.1116 2.85204C13.9318 2.8516 13.7521 2.85151 13.5723 2.85146C13.4789 2.85135 13.3855 2.85123 13.2921 2.85111C12.9985 2.85073 12.7048 2.85061 12.4112 2.85065C12.1088 2.85067 11.8064 2.85018 11.504 2.84944C11.2439 2.84882 10.9838 2.84857 10.7238 2.8486C10.5686 2.84862 10.4135 2.84844 10.2584 2.84799C10.0852 2.84753 9.91212 2.84766 9.739 2.84794C9.68795 2.84768 9.6369 2.84742 9.5843 2.84715C9.12213 2.84733 9.12213 2.84733 8.72915 3.06734ZM1.73598 5.67183C1.8153 6.02994 1.8153 6.02994 1.91773 6.37745C1.94344 6.4558 1.94344 6.4558 1.96968 6.53574C1.98826 6.59164 2.00684 6.64754 2.02599 6.70513C2.04595 6.76569 2.06591 6.82626 2.08585 6.88683C2.13968 7.05017 2.1938 7.21343 2.248 7.37666C2.28191 7.47881 2.31577 7.58098 2.34962 7.68316C2.45573 8.00338 2.562 8.32355 2.66851 8.64364C2.79116 9.01221 2.91325 9.38095 3.03486 9.74986C3.12916 10.0358 3.22395 10.3216 3.31911 10.6073C3.37583 10.7776 3.43234 10.9479 3.48835 11.1185C3.541 11.2787 3.59426 11.4388 3.64798 11.5988C3.67682 11.6851 3.70503 11.7717 3.73322 11.8582C3.87543 12.3096 3.87543 12.3096 4.22087 12.6096C4.46634 12.7019 4.6977 12.7228 4.95782 12.719C5.01552 12.7191 5.01552 12.7191 5.07439 12.7191C5.19994 12.719 5.32546 12.7179 5.45101 12.7168C5.53868 12.7166 5.62636 12.7164 5.71404 12.7162C5.94361 12.7157 6.17316 12.7143 6.40272 12.7127C6.63746 12.7113 6.87219 12.7107 7.10692 12.7099C7.56661 12.7084 8.0263 12.706 8.48598 12.7031C8.48666 12.6745 8.48735 12.6459 8.48805 12.6164C8.49156 12.4861 8.49608 12.3558 8.50063 12.2255C8.50169 12.1806 8.50274 12.1356 8.50383 12.0892C8.52023 11.6586 8.52023 11.6586 8.67348 11.4843C8.84452 11.3632 8.96068 11.3261 9.16937 11.3258C9.22141 11.3255 9.27346 11.3251 9.32708 11.3246C9.41205 11.3251 9.41205 11.3251 9.49874 11.3255C9.55875 11.3253 9.61875 11.325 9.68058 11.3248C9.84484 11.3241 10.0091 11.3244 10.1733 11.3248C10.3454 11.3252 10.5175 11.3248 10.6895 11.3246C10.9784 11.3244 11.2673 11.3247 11.5562 11.3254C11.8901 11.3261 12.2239 11.3259 12.5577 11.3251C12.8445 11.3245 13.1314 11.3244 13.4182 11.3248C13.5894 11.325 13.7606 11.325 13.9318 11.3245C14.1227 11.3241 14.3136 11.3247 14.5045 11.3255C14.5611 11.3252 14.6178 11.3249 14.6761 11.3246C14.7542 11.3252 14.7542 11.3252 14.8338 11.3258C14.879 11.3259 14.9241 11.326 14.9705 11.326C15.1617 11.3531 15.2864 11.4351 15.4127 11.5786C15.5 11.7906 15.4972 11.9984 15.5026 12.2255C15.5042 12.2714 15.5058 12.3173 15.5074 12.3646C15.5113 12.4774 15.5145 12.5902 15.5172 12.7031C16.0233 12.7063 16.5294 12.7088 17.0355 12.7104C17.2706 12.7111 17.5056 12.7121 17.7406 12.7137C17.9677 12.7152 18.1947 12.7161 18.4217 12.7164C18.5081 12.7167 18.5945 12.7172 18.6809 12.7179C18.8024 12.719 18.9239 12.7191 19.0454 12.719C19.0807 12.7196 19.116 12.7201 19.1524 12.7206C19.4742 12.7187 19.7567 12.6647 20.0061 12.452C20.174 12.2176 20.2472 11.9289 20.3355 11.6577C20.3568 11.5941 20.378 11.5306 20.3994 11.4671C20.4569 11.2953 20.5136 11.1232 20.5702 10.9511C20.6295 10.7708 20.6896 10.5908 20.7496 10.4108C20.8501 10.1086 20.9502 9.80636 21.0499 9.50397C21.178 9.11567 21.3068 8.72764 21.436 8.33969C21.547 8.00607 21.6576 7.67232 21.7682 7.33856C21.8038 7.23126 21.8394 7.12399 21.8751 7.01671C21.931 6.84838 21.9866 6.67997 22.0421 6.5115C22.0625 6.44963 22.083 6.38778 22.1035 6.32596C22.1315 6.24172 22.1593 6.15739 22.187 6.07305C22.2025 6.02585 22.2181 5.97864 22.2342 5.93C22.2736 5.81024 22.2736 5.81024 22.2672 5.67183C15.4919 5.67183 8.71661 5.67183 1.73598 5.67183ZM1.40786 9.46871C1.40572 10.8605 1.40406 12.2522 1.40307 13.644C1.40295 13.8084 1.40283 13.9727 1.40271 14.137C1.40268 14.1698 1.40266 14.2025 1.40263 14.2362C1.40222 14.7658 1.40148 15.2954 1.40062 15.8251C1.39975 16.3686 1.39923 16.9121 1.39904 17.4556C1.39891 17.7609 1.39863 18.0661 1.39794 18.3714C1.39731 18.6587 1.39711 18.946 1.39725 19.2333C1.39723 19.3387 1.39704 19.4442 1.39668 19.5496C1.39621 19.6936 1.39633 19.8376 1.39658 19.9816C1.39617 20.0442 1.39617 20.0442 1.39575 20.108C1.3972 20.4089 1.41128 20.6614 1.61586 20.8974C1.88999 21.1314 2.0952 21.1464 2.44783 21.1466C2.49819 21.1467 2.49819 21.1467 2.54956 21.1469C2.66235 21.1471 2.77514 21.147 2.88793 21.1469C2.96949 21.1469 3.05105 21.147 3.13262 21.1472C3.35699 21.1475 3.58137 21.1475 3.80574 21.1474C4.04763 21.1474 4.28952 21.1476 4.5314 21.1479C5.00539 21.1483 5.47937 21.1484 5.95336 21.1484C6.33854 21.1484 6.72373 21.1485 7.10892 21.1487C8.20052 21.1491 9.29211 21.1493 10.3837 21.1493C10.4426 21.1493 10.5014 21.1493 10.5621 21.1493C10.621 21.1493 10.68 21.1493 10.7407 21.1493C11.6962 21.1492 12.6517 21.1497 13.6072 21.1504C14.5878 21.151 15.5685 21.1513 16.5491 21.1513C17.0998 21.1513 17.6506 21.1514 18.2013 21.1519C18.6702 21.1524 19.139 21.1525 19.6079 21.1521C19.8471 21.152 20.0864 21.152 20.3257 21.1524C20.5447 21.1528 20.7637 21.1527 20.9827 21.1523C21.0619 21.1522 21.1412 21.1523 21.2205 21.1526C21.3282 21.1529 21.4359 21.1526 21.5436 21.1522C21.6333 21.1523 21.6333 21.1523 21.7249 21.1523C21.9747 21.1348 22.1612 21.0981 22.3522 20.9326C22.6101 20.6305 22.6022 20.3722 22.601 19.9929C22.601 19.9479 22.6011 19.9029 22.6011 19.8565C22.6012 19.7057 22.6009 19.5548 22.6007 19.404C22.6007 19.2959 22.6007 19.1878 22.6007 19.0797C22.6007 18.786 22.6004 18.4924 22.6001 18.1988C22.5998 17.892 22.5998 17.5852 22.5997 17.2784C22.5996 16.7634 22.5993 16.2484 22.5989 15.7334C22.5985 15.203 22.5981 14.6726 22.5979 14.1422C22.5979 14.1095 22.5979 14.0768 22.5979 14.0431C22.5978 13.879 22.5978 13.715 22.5977 13.5509C22.5972 12.1902 22.5964 10.8294 22.5954 9.46871C22.4985 9.61405 22.4542 9.73623 22.4 9.90185C22.3855 9.94602 22.3855 9.94602 22.3706 9.99107C22.3496 10.055 22.3287 10.1189 22.3079 10.1828C22.2747 10.2844 22.2413 10.386 22.2078 10.4875C22.1126 10.7761 22.0179 11.0648 21.9235 11.3537C21.8656 11.5305 21.8074 11.7072 21.749 11.8839C21.727 11.9508 21.705 12.0178 21.6833 12.0849C21.4419 12.8279 21.1775 13.454 20.4743 13.8631C20.1379 14.0164 19.8404 14.0833 19.4711 14.0827C19.4281 14.0832 19.385 14.0837 19.3407 14.0842C19.1999 14.0856 19.0592 14.086 18.9184 14.0864C18.8202 14.0872 18.722 14.0881 18.6239 14.089C18.3666 14.0912 18.1093 14.0926 17.8519 14.0938C17.5889 14.0952 17.3259 14.0974 17.0629 14.0995C16.5477 14.1036 16.0325 14.1067 15.5172 14.1093C15.5165 14.1379 15.5159 14.1665 15.5152 14.196C15.5117 14.3263 15.5071 14.4566 15.5026 14.5869C15.5015 14.6319 15.5005 14.6768 15.4994 14.7232C15.483 15.1539 15.483 15.1539 15.3297 15.3281C15.1587 15.4492 15.0425 15.4863 14.8338 15.4866C14.7818 15.487 14.7298 15.4874 14.6761 15.4878C14.6195 15.4875 14.5628 15.4872 14.5045 15.4869C14.4445 15.4871 14.3845 15.4874 14.3226 15.4876C14.1584 15.4883 13.9941 15.488 13.8299 15.4876C13.6578 15.4872 13.4858 15.4876 13.3137 15.4878C13.0248 15.488 12.7359 15.4877 12.447 15.487C12.1131 15.4863 11.7793 15.4865 11.4455 15.4873C11.1587 15.4879 10.8718 15.488 10.585 15.4877C10.4138 15.4874 10.2426 15.4874 10.0714 15.4879C9.88049 15.4884 9.68962 15.4877 9.49874 15.4869C9.41377 15.4873 9.41377 15.4873 9.32708 15.4878C9.27503 15.4874 9.22299 15.487 9.16937 15.4866C9.1017 15.4865 9.1017 15.4865 9.03267 15.4864C8.84155 15.4593 8.71683 15.3774 8.59053 15.2338C8.50326 15.0218 8.50597 14.8141 8.50063 14.5869C8.49903 14.541 8.49743 14.4951 8.49578 14.4478C8.49193 14.335 8.48868 14.2222 8.48598 14.1093C8.4049 14.1091 8.4049 14.1091 8.32217 14.1088C7.81117 14.1071 7.30018 14.1044 6.78919 14.1007C6.52652 14.0989 6.26386 14.0974 6.00118 14.0966C5.74739 14.0959 5.49361 14.0943 5.23983 14.0921C5.14331 14.0914 5.04679 14.091 4.95027 14.091C4.20973 14.0904 3.60446 14.0292 3.04097 13.4983C2.62668 13.0592 2.45825 12.5123 2.27413 11.9498C2.25032 11.8779 2.22648 11.8061 2.20262 11.7342C2.14043 11.5468 2.07866 11.3592 2.01698 11.1716C1.95376 10.9795 1.89012 10.7875 1.82653 10.5955C1.7022 10.2201 1.57832 9.84443 1.45473 9.46871C1.43926 9.46871 1.42379 9.46871 1.40786 9.46871ZM9.89223 12.7031C9.89223 13.1671 9.89223 13.6312 9.89223 14.1093C11.2844 14.1093 12.6766 14.1093 14.111 14.1093C14.111 13.6453 14.111 13.1812 14.111 12.7031C12.7188 12.7031 11.3266 12.7031 9.89223 12.7031Z"/>
</mask>
<path d="M8.99985 1.44055C9.05471 1.44015 9.10956 1.43975 9.16609 1.43933C9.22563 1.43938 9.28517 1.43942 9.34652 1.43946C9.41038 1.43918 9.47424 1.43886 9.5381 1.43851C9.71108 1.43768 9.88407 1.43746 10.0571 1.4374C10.1653 1.43733 10.2736 1.43713 10.3819 1.43689C10.7603 1.43602 11.1387 1.43564 11.5171 1.43571C11.8687 1.43577 12.2204 1.43478 12.5721 1.4333C12.8748 1.43207 13.1775 1.43157 13.4803 1.43163C13.6607 1.43165 13.8411 1.43139 14.0216 1.43039C14.1915 1.42948 14.3615 1.42948 14.5314 1.43016C14.6227 1.4303 14.7141 1.42953 14.8054 1.42871C15.4086 1.43298 15.861 1.61745 16.3141 2.01558C16.6632 2.38673 16.938 2.85757 16.9326 3.37752C16.9323 3.42948 16.932 3.48145 16.9317 3.53499C16.9309 3.58853 16.9302 3.64206 16.9293 3.69722C16.9289 3.75185 16.9285 3.80647 16.9281 3.86275C16.927 3.99704 16.9254 4.1313 16.9235 4.26558C16.9575 4.26541 16.9916 4.26524 17.0266 4.26506C17.8553 4.26092 18.6839 4.25781 19.5125 4.25587C19.9132 4.2549 20.3139 4.25358 20.7147 4.25144C21.0639 4.24957 21.4132 4.24836 21.7625 4.24794C21.9474 4.2477 22.1324 4.24712 22.3173 4.24576C22.4914 4.24448 22.6655 4.24409 22.8397 4.24437C22.9339 4.2443 23.0281 4.24329 23.1223 4.24225C23.654 4.24468 23.654 4.24468 23.861 4.45308C23.9762 4.64962 24.0192 4.79301 24.0194 5.02006C24.0198 5.07664 24.0202 5.13321 24.0206 5.1915C24.0204 5.25325 24.0201 5.31501 24.0198 5.37863C24.02 5.44521 24.0202 5.51179 24.0205 5.57837C24.0212 5.76113 24.021 5.94388 24.0207 6.12663C24.0205 6.32382 24.021 6.52101 24.0215 6.7182C24.0223 7.10448 24.0224 7.49075 24.0221 7.87703C24.0219 8.19109 24.022 8.50514 24.0222 8.81919C24.0223 8.86389 24.0223 8.90859 24.0224 8.95464C24.0224 9.04544 24.0225 9.13624 24.0226 9.22704C24.0232 10.0788 24.023 10.9305 24.0224 11.7823C24.022 12.5611 24.0226 13.3399 24.0237 14.1187C24.0248 14.9186 24.0253 15.7185 24.025 16.5184C24.0248 16.9674 24.0249 17.4163 24.0257 17.8653C24.0264 18.2477 24.0264 18.63 24.0256 19.0123C24.0252 19.2073 24.0251 19.4023 24.0259 19.5972C24.0265 19.776 24.0263 19.9547 24.0254 20.1334C24.0251 20.2282 24.0258 20.3229 24.0265 20.4177C24.0216 21.0264 23.8412 21.4799 23.4391 21.9375C23.0374 22.3153 22.5614 22.5622 22.0042 22.5589C21.9691 22.5591 21.9339 22.5592 21.8977 22.5594C21.7798 22.5598 21.662 22.5596 21.5441 22.5594C21.4587 22.5595 21.3734 22.5598 21.2881 22.56C21.0535 22.5606 20.8189 22.5606 20.5843 22.5605C20.3313 22.5604 20.0783 22.561 19.8253 22.5614C19.3296 22.5622 18.834 22.5624 18.3383 22.5625C17.9353 22.5625 17.5324 22.5627 17.1295 22.563C15.9872 22.5639 14.845 22.5643 13.7027 22.5642C13.6411 22.5642 13.5795 22.5642 13.5161 22.5642C13.4544 22.5642 13.3927 22.5642 13.3292 22.5642C12.3299 22.5642 11.3306 22.5651 10.3313 22.5664C9.30528 22.5677 8.27931 22.5684 7.25333 22.5683C6.67728 22.5683 6.10123 22.5685 5.52518 22.5695C5.03468 22.5704 4.54419 22.5706 4.05369 22.5699C3.80347 22.5696 3.55325 22.5696 3.30303 22.5704C3.07382 22.5712 2.84462 22.571 2.61541 22.5702C2.53264 22.5701 2.44986 22.5703 2.36709 22.5708C1.66755 22.5749 1.14979 22.4578 0.610981 21.9843C0.25947 21.6106 -0.00974963 21.1414 -0.0104535 20.6191C-0.0107558 20.5622 -0.0110583 20.5053 -0.0113697 20.4467C-0.0112318 20.384 -0.0110849 20.3213 -0.0109299 20.2586C-0.0111051 20.1916 -0.0113209 20.1247 -0.0115736 20.0577C-0.0121468 19.874 -0.0121348 19.6902 -0.0120242 19.5065C-0.0120051 19.3083 -0.0125223 19.11 -0.0129669 18.9118C-0.0137454 18.5235 -0.0140032 18.1353 -0.0140555 17.747C-0.0141001 17.4315 -0.0142926 17.1159 -0.0145898 16.8004C-0.0154153 15.906 -0.0158482 15.0116 -0.0157779 14.1171C-0.0157722 14.0448 -0.0157721 14.0448 -0.0157664 13.971C-0.0157626 13.9228 -0.0157589 13.8745 -0.015755 13.8248C-0.0157168 13.042 -0.0166145 12.2593 -0.0179358 11.4765C-0.0192815 10.673 -0.0199294 9.86942 -0.0198484 9.06586C-0.0198172 8.61465 -0.0200764 8.16345 -0.0210843 7.71224C-0.0219368 7.32818 -0.0221424 6.94413 -0.0215049 6.56007C-0.0211982 6.36409 -0.0211958 6.16811 -0.022007 5.97213C-0.0227419 5.79274 -0.022613 5.61338 -0.0217932 5.43399C-0.0216487 5.36908 -0.0218215 5.30416 -0.0223425 5.23925C-0.0269369 4.62626 -0.0269366 4.62626 0.189106 4.40621C0.361722 4.2716 0.487886 4.2481 0.704362 4.24867C0.760691 4.24848 0.81702 4.24828 0.875056 4.24808C0.967153 4.24884 0.967153 4.24884 1.06111 4.24962C1.12672 4.24966 1.19234 4.24963 1.25795 4.24955C1.43575 4.24951 1.61354 4.25034 1.79134 4.25132C1.97726 4.2522 2.16319 4.25228 2.34912 4.25245C2.70106 4.25289 3.053 4.25404 3.40494 4.25545C3.80567 4.25703 4.2064 4.2578 4.60713 4.2585C5.43133 4.25997 6.25553 4.26245 7.07973 4.26558C7.07875 4.23278 7.07777 4.19998 7.07676 4.16619C7.07281 4.01476 7.0704 3.86333 7.06801 3.71187C7.06566 3.63451 7.06566 3.63451 7.06325 3.55559C7.05621 2.95855 7.24951 2.5094 7.64223 2.06246C8.0127 1.71397 8.48152 1.44226 8.99985 1.44055ZM8.72915 3.06734C8.40492 3.44715 8.48598 3.73725 8.48598 4.26558C10.8063 4.26558 13.1266 4.26558 15.5172 4.26558C15.5601 3.63636 15.5601 3.63636 15.3092 3.1025C15.068 2.89658 14.8853 2.85366 14.5746 2.85306C14.5274 2.85286 14.4802 2.85266 14.4316 2.85246C14.3804 2.85248 14.3291 2.8525 14.2763 2.85252C14.222 2.85236 14.1676 2.85221 14.1116 2.85204C13.9318 2.8516 13.7521 2.85151 13.5723 2.85146C13.4789 2.85135 13.3855 2.85123 13.2921 2.85111C12.9985 2.85073 12.7048 2.85061 12.4112 2.85065C12.1088 2.85067 11.8064 2.85018 11.504 2.84944C11.2439 2.84882 10.9838 2.84857 10.7238 2.8486C10.5686 2.84862 10.4135 2.84844 10.2584 2.84799C10.0852 2.84753 9.91212 2.84766 9.739 2.84794C9.68795 2.84768 9.6369 2.84742 9.5843 2.84715C9.12213 2.84733 9.12213 2.84733 8.72915 3.06734ZM1.73598 5.67183C1.8153 6.02994 1.8153 6.02994 1.91773 6.37745C1.94344 6.4558 1.94344 6.4558 1.96968 6.53574C1.98826 6.59164 2.00684 6.64754 2.02599 6.70513C2.04595 6.76569 2.06591 6.82626 2.08585 6.88683C2.13968 7.05017 2.1938 7.21343 2.248 7.37666C2.28191 7.47881 2.31577 7.58098 2.34962 7.68316C2.45573 8.00338 2.562 8.32355 2.66851 8.64364C2.79116 9.01221 2.91325 9.38095 3.03486 9.74986C3.12916 10.0358 3.22395 10.3216 3.31911 10.6073C3.37583 10.7776 3.43234 10.9479 3.48835 11.1185C3.541 11.2787 3.59426 11.4388 3.64798 11.5988C3.67682 11.6851 3.70503 11.7717 3.73322 11.8582C3.87543 12.3096 3.87543 12.3096 4.22087 12.6096C4.46634 12.7019 4.6977 12.7228 4.95782 12.719C5.01552 12.7191 5.01552 12.7191 5.07439 12.7191C5.19994 12.719 5.32546 12.7179 5.45101 12.7168C5.53868 12.7166 5.62636 12.7164 5.71404 12.7162C5.94361 12.7157 6.17316 12.7143 6.40272 12.7127C6.63746 12.7113 6.87219 12.7107 7.10692 12.7099C7.56661 12.7084 8.0263 12.706 8.48598 12.7031C8.48666 12.6745 8.48735 12.6459 8.48805 12.6164C8.49156 12.4861 8.49608 12.3558 8.50063 12.2255C8.50169 12.1806 8.50274 12.1356 8.50383 12.0892C8.52023 11.6586 8.52023 11.6586 8.67348 11.4843C8.84452 11.3632 8.96068 11.3261 9.16937 11.3258C9.22141 11.3255 9.27346 11.3251 9.32708 11.3246C9.41205 11.3251 9.41205 11.3251 9.49874 11.3255C9.55875 11.3253 9.61875 11.325 9.68058 11.3248C9.84484 11.3241 10.0091 11.3244 10.1733 11.3248C10.3454 11.3252 10.5175 11.3248 10.6895 11.3246C10.9784 11.3244 11.2673 11.3247 11.5562 11.3254C11.8901 11.3261 12.2239 11.3259 12.5577 11.3251C12.8445 11.3245 13.1314 11.3244 13.4182 11.3248C13.5894 11.325 13.7606 11.325 13.9318 11.3245C14.1227 11.3241 14.3136 11.3247 14.5045 11.3255C14.5611 11.3252 14.6178 11.3249 14.6761 11.3246C14.7542 11.3252 14.7542 11.3252 14.8338 11.3258C14.879 11.3259 14.9241 11.326 14.9705 11.326C15.1617 11.3531 15.2864 11.4351 15.4127 11.5786C15.5 11.7906 15.4972 11.9984 15.5026 12.2255C15.5042 12.2714 15.5058 12.3173 15.5074 12.3646C15.5113 12.4774 15.5145 12.5902 15.5172 12.7031C16.0233 12.7063 16.5294 12.7088 17.0355 12.7104C17.2706 12.7111 17.5056 12.7121 17.7406 12.7137C17.9677 12.7152 18.1947 12.7161 18.4217 12.7164C18.5081 12.7167 18.5945 12.7172 18.6809 12.7179C18.8024 12.719 18.9239 12.7191 19.0454 12.719C19.0807 12.7196 19.116 12.7201 19.1524 12.7206C19.4742 12.7187 19.7567 12.6647 20.0061 12.452C20.174 12.2176 20.2472 11.9289 20.3355 11.6577C20.3568 11.5941 20.378 11.5306 20.3994 11.4671C20.4569 11.2953 20.5136 11.1232 20.5702 10.9511C20.6295 10.7708 20.6896 10.5908 20.7496 10.4108C20.8501 10.1086 20.9502 9.80636 21.0499 9.50397C21.178 9.11567 21.3068 8.72764 21.436 8.33969C21.547 8.00607 21.6576 7.67232 21.7682 7.33856C21.8038 7.23126 21.8394 7.12399 21.8751 7.01671C21.931 6.84838 21.9866 6.67997 22.0421 6.5115C22.0625 6.44963 22.083 6.38778 22.1035 6.32596C22.1315 6.24172 22.1593 6.15739 22.187 6.07305C22.2025 6.02585 22.2181 5.97864 22.2342 5.93C22.2736 5.81024 22.2736 5.81024 22.2672 5.67183C15.4919 5.67183 8.71661 5.67183 1.73598 5.67183ZM1.40786 9.46871C1.40572 10.8605 1.40406 12.2522 1.40307 13.644C1.40295 13.8084 1.40283 13.9727 1.40271 14.137C1.40268 14.1698 1.40266 14.2025 1.40263 14.2362C1.40222 14.7658 1.40148 15.2954 1.40062 15.8251C1.39975 16.3686 1.39923 16.9121 1.39904 17.4556C1.39891 17.7609 1.39863 18.0661 1.39794 18.3714C1.39731 18.6587 1.39711 18.946 1.39725 19.2333C1.39723 19.3387 1.39704 19.4442 1.39668 19.5496C1.39621 19.6936 1.39633 19.8376 1.39658 19.9816C1.39617 20.0442 1.39617 20.0442 1.39575 20.108C1.3972 20.4089 1.41128 20.6614 1.61586 20.8974C1.88999 21.1314 2.0952 21.1464 2.44783 21.1466C2.49819 21.1467 2.49819 21.1467 2.54956 21.1469C2.66235 21.1471 2.77514 21.147 2.88793 21.1469C2.96949 21.1469 3.05105 21.147 3.13262 21.1472C3.35699 21.1475 3.58137 21.1475 3.80574 21.1474C4.04763 21.1474 4.28952 21.1476 4.5314 21.1479C5.00539 21.1483 5.47937 21.1484 5.95336 21.1484C6.33854 21.1484 6.72373 21.1485 7.10892 21.1487C8.20052 21.1491 9.29211 21.1493 10.3837 21.1493C10.4426 21.1493 10.5014 21.1493 10.5621 21.1493C10.621 21.1493 10.68 21.1493 10.7407 21.1493C11.6962 21.1492 12.6517 21.1497 13.6072 21.1504C14.5878 21.151 15.5685 21.1513 16.5491 21.1513C17.0998 21.1513 17.6506 21.1514 18.2013 21.1519C18.6702 21.1524 19.139 21.1525 19.6079 21.1521C19.8471 21.152 20.0864 21.152 20.3257 21.1524C20.5447 21.1528 20.7637 21.1527 20.9827 21.1523C21.0619 21.1522 21.1412 21.1523 21.2205 21.1526C21.3282 21.1529 21.4359 21.1526 21.5436 21.1522C21.6333 21.1523 21.6333 21.1523 21.7249 21.1523C21.9747 21.1348 22.1612 21.0981 22.3522 20.9326C22.6101 20.6305 22.6022 20.3722 22.601 19.9929C22.601 19.9479 22.6011 19.9029 22.6011 19.8565C22.6012 19.7057 22.6009 19.5548 22.6007 19.404C22.6007 19.2959 22.6007 19.1878 22.6007 19.0797C22.6007 18.786 22.6004 18.4924 22.6001 18.1988C22.5998 17.892 22.5998 17.5852 22.5997 17.2784C22.5996 16.7634 22.5993 16.2484 22.5989 15.7334C22.5985 15.203 22.5981 14.6726 22.5979 14.1422C22.5979 14.1095 22.5979 14.0768 22.5979 14.0431C22.5978 13.879 22.5978 13.715 22.5977 13.5509C22.5972 12.1902 22.5964 10.8294 22.5954 9.46871C22.4985 9.61405 22.4542 9.73623 22.4 9.90185C22.3855 9.94602 22.3855 9.94602 22.3706 9.99107C22.3496 10.055 22.3287 10.1189 22.3079 10.1828C22.2747 10.2844 22.2413 10.386 22.2078 10.4875C22.1126 10.7761 22.0179 11.0648 21.9235 11.3537C21.8656 11.5305 21.8074 11.7072 21.749 11.8839C21.727 11.9508 21.705 12.0178 21.6833 12.0849C21.4419 12.8279 21.1775 13.454 20.4743 13.8631C20.1379 14.0164 19.8404 14.0833 19.4711 14.0827C19.4281 14.0832 19.385 14.0837 19.3407 14.0842C19.1999 14.0856 19.0592 14.086 18.9184 14.0864C18.8202 14.0872 18.722 14.0881 18.6239 14.089C18.3666 14.0912 18.1093 14.0926 17.8519 14.0938C17.5889 14.0952 17.3259 14.0974 17.0629 14.0995C16.5477 14.1036 16.0325 14.1067 15.5172 14.1093C15.5165 14.1379 15.5159 14.1665 15.5152 14.196C15.5117 14.3263 15.5071 14.4566 15.5026 14.5869C15.5015 14.6319 15.5005 14.6768 15.4994 14.7232C15.483 15.1539 15.483 15.1539 15.3297 15.3281C15.1587 15.4492 15.0425 15.4863 14.8338 15.4866C14.7818 15.487 14.7298 15.4874 14.6761 15.4878C14.6195 15.4875 14.5628 15.4872 14.5045 15.4869C14.4445 15.4871 14.3845 15.4874 14.3226 15.4876C14.1584 15.4883 13.9941 15.488 13.8299 15.4876C13.6578 15.4872 13.4858 15.4876 13.3137 15.4878C13.0248 15.488 12.7359 15.4877 12.447 15.487C12.1131 15.4863 11.7793 15.4865 11.4455 15.4873C11.1587 15.4879 10.8718 15.488 10.585 15.4877C10.4138 15.4874 10.2426 15.4874 10.0714 15.4879C9.88049 15.4884 9.68962 15.4877 9.49874 15.4869C9.41377 15.4873 9.41377 15.4873 9.32708 15.4878C9.27503 15.4874 9.22299 15.487 9.16937 15.4866C9.1017 15.4865 9.1017 15.4865 9.03267 15.4864C8.84155 15.4593 8.71683 15.3774 8.59053 15.2338C8.50326 15.0218 8.50597 14.8141 8.50063 14.5869C8.49903 14.541 8.49743 14.4951 8.49578 14.4478C8.49193 14.335 8.48868 14.2222 8.48598 14.1093C8.4049 14.1091 8.4049 14.1091 8.32217 14.1088C7.81117 14.1071 7.30018 14.1044 6.78919 14.1007C6.52652 14.0989 6.26386 14.0974 6.00118 14.0966C5.74739 14.0959 5.49361 14.0943 5.23983 14.0921C5.14331 14.0914 5.04679 14.091 4.95027 14.091C4.20973 14.0904 3.60446 14.0292 3.04097 13.4983C2.62668 13.0592 2.45825 12.5123 2.27413 11.9498C2.25032 11.8779 2.22648 11.8061 2.20262 11.7342C2.14043 11.5468 2.07866 11.3592 2.01698 11.1716C1.95376 10.9795 1.89012 10.7875 1.82653 10.5955C1.7022 10.2201 1.57832 9.84443 1.45473 9.46871C1.43926 9.46871 1.42379 9.46871 1.40786 9.46871ZM9.89223 12.7031C9.89223 13.1671 9.89223 13.6312 9.89223 14.1093C11.2844 14.1093 12.6766 14.1093 14.111 14.1093C14.111 13.6453 14.111 13.1812 14.111 12.7031C12.7188 12.7031 11.3266 12.7031 9.89223 12.7031Z" fill="#3A3A3C"/>
<path d="M8.99985 1.44055C9.05471 1.44015 9.10956 1.43975 9.16609 1.43933C9.22563 1.43938 9.28517 1.43942 9.34652 1.43946C9.41038 1.43918 9.47424 1.43886 9.5381 1.43851C9.71108 1.43768 9.88407 1.43746 10.0571 1.4374C10.1653 1.43733 10.2736 1.43713 10.3819 1.43689C10.7603 1.43602 11.1387 1.43564 11.5171 1.43571C11.8687 1.43577 12.2204 1.43478 12.5721 1.4333C12.8748 1.43207 13.1775 1.43157 13.4803 1.43163C13.6607 1.43165 13.8411 1.43139 14.0216 1.43039C14.1915 1.42948 14.3615 1.42948 14.5314 1.43016C14.6227 1.4303 14.7141 1.42953 14.8054 1.42871C15.4086 1.43298 15.861 1.61745 16.3141 2.01558C16.6632 2.38673 16.938 2.85757 16.9326 3.37752C16.9323 3.42948 16.932 3.48145 16.9317 3.53499C16.9309 3.58853 16.9302 3.64206 16.9293 3.69722C16.9289 3.75185 16.9285 3.80647 16.9281 3.86275C16.927 3.99704 16.9254 4.1313 16.9235 4.26558C16.9575 4.26541 16.9916 4.26524 17.0266 4.26506C17.8553 4.26092 18.6839 4.25781 19.5125 4.25587C19.9132 4.2549 20.3139 4.25358 20.7147 4.25144C21.0639 4.24957 21.4132 4.24836 21.7625 4.24794C21.9474 4.2477 22.1324 4.24712 22.3173 4.24576C22.4914 4.24448 22.6655 4.24409 22.8397 4.24437C22.9339 4.2443 23.0281 4.24329 23.1223 4.24225C23.654 4.24468 23.654 4.24468 23.861 4.45308C23.9762 4.64962 24.0192 4.79301 24.0194 5.02006C24.0198 5.07664 24.0202 5.13321 24.0206 5.1915C24.0204 5.25325 24.0201 5.31501 24.0198 5.37863C24.02 5.44521 24.0202 5.51179 24.0205 5.57837C24.0212 5.76113 24.021 5.94388 24.0207 6.12663C24.0205 6.32382 24.021 6.52101 24.0215 6.7182C24.0223 7.10448 24.0224 7.49075 24.0221 7.87703C24.0219 8.19109 24.022 8.50514 24.0222 8.81919C24.0223 8.86389 24.0223 8.90859 24.0224 8.95464C24.0224 9.04544 24.0225 9.13624 24.0226 9.22704C24.0232 10.0788 24.023 10.9305 24.0224 11.7823C24.022 12.5611 24.0226 13.3399 24.0237 14.1187C24.0248 14.9186 24.0253 15.7185 24.025 16.5184C24.0248 16.9674 24.0249 17.4163 24.0257 17.8653C24.0264 18.2477 24.0264 18.63 24.0256 19.0123C24.0252 19.2073 24.0251 19.4023 24.0259 19.5972C24.0265 19.776 24.0263 19.9547 24.0254 20.1334C24.0251 20.2282 24.0258 20.3229 24.0265 20.4177C24.0216 21.0264 23.8412 21.4799 23.4391 21.9375C23.0374 22.3153 22.5614 22.5622 22.0042 22.5589C21.9691 22.5591 21.9339 22.5592 21.8977 22.5594C21.7798 22.5598 21.662 22.5596 21.5441 22.5594C21.4587 22.5595 21.3734 22.5598 21.2881 22.56C21.0535 22.5606 20.8189 22.5606 20.5843 22.5605C20.3313 22.5604 20.0783 22.561 19.8253 22.5614C19.3296 22.5622 18.834 22.5624 18.3383 22.5625C17.9353 22.5625 17.5324 22.5627 17.1295 22.563C15.9872 22.5639 14.845 22.5643 13.7027 22.5642C13.6411 22.5642 13.5795 22.5642 13.5161 22.5642C13.4544 22.5642 13.3927 22.5642 13.3292 22.5642C12.3299 22.5642 11.3306 22.5651 10.3313 22.5664C9.30528 22.5677 8.27931 22.5684 7.25333 22.5683C6.67728 22.5683 6.10123 22.5685 5.52518 22.5695C5.03468 22.5704 4.54419 22.5706 4.05369 22.5699C3.80347 22.5696 3.55325 22.5696 3.30303 22.5704C3.07382 22.5712 2.84462 22.571 2.61541 22.5702C2.53264 22.5701 2.44986 22.5703 2.36709 22.5708C1.66755 22.5749 1.14979 22.4578 0.610981 21.9843C0.25947 21.6106 -0.00974963 21.1414 -0.0104535 20.6191C-0.0107558 20.5622 -0.0110583 20.5053 -0.0113697 20.4467C-0.0112318 20.384 -0.0110849 20.3213 -0.0109299 20.2586C-0.0111051 20.1916 -0.0113209 20.1247 -0.0115736 20.0577C-0.0121468 19.874 -0.0121348 19.6902 -0.0120242 19.5065C-0.0120051 19.3083 -0.0125223 19.11 -0.0129669 18.9118C-0.0137454 18.5235 -0.0140032 18.1353 -0.0140555 17.747C-0.0141001 17.4315 -0.0142926 17.1159 -0.0145898 16.8004C-0.0154153 15.906 -0.0158482 15.0116 -0.0157779 14.1171C-0.0157722 14.0448 -0.0157721 14.0448 -0.0157664 13.971C-0.0157626 13.9228 -0.0157589 13.8745 -0.015755 13.8248C-0.0157168 13.042 -0.0166145 12.2593 -0.0179358 11.4765C-0.0192815 10.673 -0.0199294 9.86942 -0.0198484 9.06586C-0.0198172 8.61465 -0.0200764 8.16345 -0.0210843 7.71224C-0.0219368 7.32818 -0.0221424 6.94413 -0.0215049 6.56007C-0.0211982 6.36409 -0.0211958 6.16811 -0.022007 5.97213C-0.0227419 5.79274 -0.022613 5.61338 -0.0217932 5.43399C-0.0216487 5.36908 -0.0218215 5.30416 -0.0223425 5.23925C-0.0269369 4.62626 -0.0269366 4.62626 0.189106 4.40621C0.361722 4.2716 0.487886 4.2481 0.704362 4.24867C0.760691 4.24848 0.81702 4.24828 0.875056 4.24808C0.967153 4.24884 0.967153 4.24884 1.06111 4.24962C1.12672 4.24966 1.19234 4.24963 1.25795 4.24955C1.43575 4.24951 1.61354 4.25034 1.79134 4.25132C1.97726 4.2522 2.16319 4.25228 2.34912 4.25245C2.70106 4.25289 3.053 4.25404 3.40494 4.25545C3.80567 4.25703 4.2064 4.2578 4.60713 4.2585C5.43133 4.25997 6.25553 4.26245 7.07973 4.26558C7.07875 4.23278 7.07777 4.19998 7.07676 4.16619C7.07281 4.01476 7.0704 3.86333 7.06801 3.71187C7.06566 3.63451 7.06566 3.63451 7.06325 3.55559C7.05621 2.95855 7.24951 2.5094 7.64223 2.06246C8.0127 1.71397 8.48152 1.44226 8.99985 1.44055ZM8.72915 3.06734C8.40492 3.44715 8.48598 3.73725 8.48598 4.26558C10.8063 4.26558 13.1266 4.26558 15.5172 4.26558C15.5601 3.63636 15.5601 3.63636 15.3092 3.1025C15.068 2.89658 14.8853 2.85366 14.5746 2.85306C14.5274 2.85286 14.4802 2.85266 14.4316 2.85246C14.3804 2.85248 14.3291 2.8525 14.2763 2.85252C14.222 2.85236 14.1676 2.85221 14.1116 2.85204C13.9318 2.8516 13.7521 2.85151 13.5723 2.85146C13.4789 2.85135 13.3855 2.85123 13.2921 2.85111C12.9985 2.85073 12.7048 2.85061 12.4112 2.85065C12.1088 2.85067 11.8064 2.85018 11.504 2.84944C11.2439 2.84882 10.9838 2.84857 10.7238 2.8486C10.5686 2.84862 10.4135 2.84844 10.2584 2.84799C10.0852 2.84753 9.91212 2.84766 9.739 2.84794C9.68795 2.84768 9.6369 2.84742 9.5843 2.84715C9.12213 2.84733 9.12213 2.84733 8.72915 3.06734ZM1.73598 5.67183C1.8153 6.02994 1.8153 6.02994 1.91773 6.37745C1.94344 6.4558 1.94344 6.4558 1.96968 6.53574C1.98826 6.59164 2.00684 6.64754 2.02599 6.70513C2.04595 6.76569 2.06591 6.82626 2.08585 6.88683C2.13968 7.05017 2.1938 7.21343 2.248 7.37666C2.28191 7.47881 2.31577 7.58098 2.34962 7.68316C2.45573 8.00338 2.562 8.32355 2.66851 8.64364C2.79116 9.01221 2.91325 9.38095 3.03486 9.74986C3.12916 10.0358 3.22395 10.3216 3.31911 10.6073C3.37583 10.7776 3.43234 10.9479 3.48835 11.1185C3.541 11.2787 3.59426 11.4388 3.64798 11.5988C3.67682 11.6851 3.70503 11.7717 3.73322 11.8582C3.87543 12.3096 3.87543 12.3096 4.22087 12.6096C4.46634 12.7019 4.6977 12.7228 4.95782 12.719C5.01552 12.7191 5.01552 12.7191 5.07439 12.7191C5.19994 12.719 5.32546 12.7179 5.45101 12.7168C5.53868 12.7166 5.62636 12.7164 5.71404 12.7162C5.94361 12.7157 6.17316 12.7143 6.40272 12.7127C6.63746 12.7113 6.87219 12.7107 7.10692 12.7099C7.56661 12.7084 8.0263 12.706 8.48598 12.7031C8.48666 12.6745 8.48735 12.6459 8.48805 12.6164C8.49156 12.4861 8.49608 12.3558 8.50063 12.2255C8.50169 12.1806 8.50274 12.1356 8.50383 12.0892C8.52023 11.6586 8.52023 11.6586 8.67348 11.4843C8.84452 11.3632 8.96068 11.3261 9.16937 11.3258C9.22141 11.3255 9.27346 11.3251 9.32708 11.3246C9.41205 11.3251 9.41205 11.3251 9.49874 11.3255C9.55875 11.3253 9.61875 11.325 9.68058 11.3248C9.84484 11.3241 10.0091 11.3244 10.1733 11.3248C10.3454 11.3252 10.5175 11.3248 10.6895 11.3246C10.9784 11.3244 11.2673 11.3247 11.5562 11.3254C11.8901 11.3261 12.2239 11.3259 12.5577 11.3251C12.8445 11.3245 13.1314 11.3244 13.4182 11.3248C13.5894 11.325 13.7606 11.325 13.9318 11.3245C14.1227 11.3241 14.3136 11.3247 14.5045 11.3255C14.5611 11.3252 14.6178 11.3249 14.6761 11.3246C14.7542 11.3252 14.7542 11.3252 14.8338 11.3258C14.879 11.3259 14.9241 11.326 14.9705 11.326C15.1617 11.3531 15.2864 11.4351 15.4127 11.5786C15.5 11.7906 15.4972 11.9984 15.5026 12.2255C15.5042 12.2714 15.5058 12.3173 15.5074 12.3646C15.5113 12.4774 15.5145 12.5902 15.5172 12.7031C16.0233 12.7063 16.5294 12.7088 17.0355 12.7104C17.2706 12.7111 17.5056 12.7121 17.7406 12.7137C17.9677 12.7152 18.1947 12.7161 18.4217 12.7164C18.5081 12.7167 18.5945 12.7172 18.6809 12.7179C18.8024 12.719 18.9239 12.7191 19.0454 12.719C19.0807 12.7196 19.116 12.7201 19.1524 12.7206C19.4742 12.7187 19.7567 12.6647 20.0061 12.452C20.174 12.2176 20.2472 11.9289 20.3355 11.6577C20.3568 11.5941 20.378 11.5306 20.3994 11.4671C20.4569 11.2953 20.5136 11.1232 20.5702 10.9511C20.6295 10.7708 20.6896 10.5908 20.7496 10.4108C20.8501 10.1086 20.9502 9.80636 21.0499 9.50397C21.178 9.11567 21.3068 8.72764 21.436 8.33969C21.547 8.00607 21.6576 7.67232 21.7682 7.33856C21.8038 7.23126 21.8394 7.12399 21.8751 7.01671C21.931 6.84838 21.9866 6.67997 22.0421 6.5115C22.0625 6.44963 22.083 6.38778 22.1035 6.32596C22.1315 6.24172 22.1593 6.15739 22.187 6.07305C22.2025 6.02585 22.2181 5.97864 22.2342 5.93C22.2736 5.81024 22.2736 5.81024 22.2672 5.67183C15.4919 5.67183 8.71661 5.67183 1.73598 5.67183ZM1.40786 9.46871C1.40572 10.8605 1.40406 12.2522 1.40307 13.644C1.40295 13.8084 1.40283 13.9727 1.40271 14.137C1.40268 14.1698 1.40266 14.2025 1.40263 14.2362C1.40222 14.7658 1.40148 15.2954 1.40062 15.8251C1.39975 16.3686 1.39923 16.9121 1.39904 17.4556C1.39891 17.7609 1.39863 18.0661 1.39794 18.3714C1.39731 18.6587 1.39711 18.946 1.39725 19.2333C1.39723 19.3387 1.39704 19.4442 1.39668 19.5496C1.39621 19.6936 1.39633 19.8376 1.39658 19.9816C1.39617 20.0442 1.39617 20.0442 1.39575 20.108C1.3972 20.4089 1.41128 20.6614 1.61586 20.8974C1.88999 21.1314 2.0952 21.1464 2.44783 21.1466C2.49819 21.1467 2.49819 21.1467 2.54956 21.1469C2.66235 21.1471 2.77514 21.147 2.88793 21.1469C2.96949 21.1469 3.05105 21.147 3.13262 21.1472C3.35699 21.1475 3.58137 21.1475 3.80574 21.1474C4.04763 21.1474 4.28952 21.1476 4.5314 21.1479C5.00539 21.1483 5.47937 21.1484 5.95336 21.1484C6.33854 21.1484 6.72373 21.1485 7.10892 21.1487C8.20052 21.1491 9.29211 21.1493 10.3837 21.1493C10.4426 21.1493 10.5014 21.1493 10.5621 21.1493C10.621 21.1493 10.68 21.1493 10.7407 21.1493C11.6962 21.1492 12.6517 21.1497 13.6072 21.1504C14.5878 21.151 15.5685 21.1513 16.5491 21.1513C17.0998 21.1513 17.6506 21.1514 18.2013 21.1519C18.6702 21.1524 19.139 21.1525 19.6079 21.1521C19.8471 21.152 20.0864 21.152 20.3257 21.1524C20.5447 21.1528 20.7637 21.1527 20.9827 21.1523C21.0619 21.1522 21.1412 21.1523 21.2205 21.1526C21.3282 21.1529 21.4359 21.1526 21.5436 21.1522C21.6333 21.1523 21.6333 21.1523 21.7249 21.1523C21.9747 21.1348 22.1612 21.0981 22.3522 20.9326C22.6101 20.6305 22.6022 20.3722 22.601 19.9929C22.601 19.9479 22.6011 19.9029 22.6011 19.8565C22.6012 19.7057 22.6009 19.5548 22.6007 19.404C22.6007 19.2959 22.6007 19.1878 22.6007 19.0797C22.6007 18.786 22.6004 18.4924 22.6001 18.1988C22.5998 17.892 22.5998 17.5852 22.5997 17.2784C22.5996 16.7634 22.5993 16.2484 22.5989 15.7334C22.5985 15.203 22.5981 14.6726 22.5979 14.1422C22.5979 14.1095 22.5979 14.0768 22.5979 14.0431C22.5978 13.879 22.5978 13.715 22.5977 13.5509C22.5972 12.1902 22.5964 10.8294 22.5954 9.46871C22.4985 9.61405 22.4542 9.73623 22.4 9.90185C22.3855 9.94602 22.3855 9.94602 22.3706 9.99107C22.3496 10.055 22.3287 10.1189 22.3079 10.1828C22.2747 10.2844 22.2413 10.386 22.2078 10.4875C22.1126 10.7761 22.0179 11.0648 21.9235 11.3537C21.8656 11.5305 21.8074 11.7072 21.749 11.8839C21.727 11.9508 21.705 12.0178 21.6833 12.0849C21.4419 12.8279 21.1775 13.454 20.4743 13.8631C20.1379 14.0164 19.8404 14.0833 19.4711 14.0827C19.4281 14.0832 19.385 14.0837 19.3407 14.0842C19.1999 14.0856 19.0592 14.086 18.9184 14.0864C18.8202 14.0872 18.722 14.0881 18.6239 14.089C18.3666 14.0912 18.1093 14.0926 17.8519 14.0938C17.5889 14.0952 17.3259 14.0974 17.0629 14.0995C16.5477 14.1036 16.0325 14.1067 15.5172 14.1093C15.5165 14.1379 15.5159 14.1665 15.5152 14.196C15.5117 14.3263 15.5071 14.4566 15.5026 14.5869C15.5015 14.6319 15.5005 14.6768 15.4994 14.7232C15.483 15.1539 15.483 15.1539 15.3297 15.3281C15.1587 15.4492 15.0425 15.4863 14.8338 15.4866C14.7818 15.487 14.7298 15.4874 14.6761 15.4878C14.6195 15.4875 14.5628 15.4872 14.5045 15.4869C14.4445 15.4871 14.3845 15.4874 14.3226 15.4876C14.1584 15.4883 13.9941 15.488 13.8299 15.4876C13.6578 15.4872 13.4858 15.4876 13.3137 15.4878C13.0248 15.488 12.7359 15.4877 12.447 15.487C12.1131 15.4863 11.7793 15.4865 11.4455 15.4873C11.1587 15.4879 10.8718 15.488 10.585 15.4877C10.4138 15.4874 10.2426 15.4874 10.0714 15.4879C9.88049 15.4884 9.68962 15.4877 9.49874 15.4869C9.41377 15.4873 9.41377 15.4873 9.32708 15.4878C9.27503 15.4874 9.22299 15.487 9.16937 15.4866C9.1017 15.4865 9.1017 15.4865 9.03267 15.4864C8.84155 15.4593 8.71683 15.3774 8.59053 15.2338C8.50326 15.0218 8.50597 14.8141 8.50063 14.5869C8.49903 14.541 8.49743 14.4951 8.49578 14.4478C8.49193 14.335 8.48868 14.2222 8.48598 14.1093C8.4049 14.1091 8.4049 14.1091 8.32217 14.1088C7.81117 14.1071 7.30018 14.1044 6.78919 14.1007C6.52652 14.0989 6.26386 14.0974 6.00118 14.0966C5.74739 14.0959 5.49361 14.0943 5.23983 14.0921C5.14331 14.0914 5.04679 14.091 4.95027 14.091C4.20973 14.0904 3.60446 14.0292 3.04097 13.4983C2.62668 13.0592 2.45825 12.5123 2.27413 11.9498C2.25032 11.8779 2.22648 11.8061 2.20262 11.7342C2.14043 11.5468 2.07866 11.3592 2.01698 11.1716C1.95376 10.9795 1.89012 10.7875 1.82653 10.5955C1.7022 10.2201 1.57832 9.84443 1.45473 9.46871C1.43926 9.46871 1.42379 9.46871 1.40786 9.46871ZM9.89223 12.7031C9.89223 13.1671 9.89223 13.6312 9.89223 14.1093C11.2844 14.1093 12.6766 14.1093 14.111 14.1093C14.111 13.6453 14.111 13.1812 14.111 12.7031C12.7188 12.7031 11.3266 12.7031 9.89223 12.7031Z" stroke="#3A3A3C" stroke-width="0.6" mask="url(#path-1-outside-1_2640_31323)"/>
</g>
<defs>
<clipPath id="clip0_2640_31323">
<rect width="24" height="24" fill="white"/>
</clipPath>
</defs>
</svg>
