<svg width="24" height="24" viewBox="0 0 24 24" fill="none" xmlns="http://www.w3.org/2000/svg">
<g clip-path="url(#clip0_1889_9416)">
<path d="M20.7273 0H3.27273C2.40475 0 1.57232 0.361265 0.95856 1.00432C0.344804 1.64738 0 2.51955 0 3.42896V14.8588C0 15.7683 0.344804 16.6404 0.95856 17.2835C1.57232 17.9265 2.40475 18.2878 3.27273 18.2878H4.36364V22.8598C4.36412 23.073 4.42154 23.2819 4.5294 23.4627C4.63726 23.6436 4.79126 23.7892 4.97399 23.8831C5.15671 23.9771 5.36088 24.0156 5.5634 23.9943C5.76592 23.973 5.95872 23.8928 6.12 23.7627L12.84 18.2878H20.7273C21.5953 18.2878 22.4277 17.9265 23.0414 17.2835C23.6552 16.6404 24 15.7683 24 14.8588V3.42896C24 2.51955 23.6552 1.64738 23.0414 1.00432C22.4277 0.361265 21.5953 0 20.7273 0ZM21.8182 14.8588C21.8182 15.162 21.7032 15.4527 21.4987 15.6671C21.2941 15.8814 21.0166 16.0018 20.7273 16.0018H12.4691C12.2281 16.0026 11.9941 16.087 11.8036 16.2419L6.54545 20.5738V17.1448C6.54545 16.8417 6.43052 16.551 6.22593 16.3366C6.02135 16.1222 5.74387 16.0018 5.45455 16.0018H3.27273C2.9834 16.0018 2.70592 15.8814 2.50134 15.6671C2.29675 15.4527 2.18182 15.162 2.18182 14.8588V3.42896C2.18182 3.12582 2.29675 2.8351 2.50134 2.62075C2.70592 2.4064 2.9834 2.28598 3.27273 2.28598H20.7273C21.0166 2.28598 21.2941 2.4064 21.4987 2.62075C21.7032 2.8351 21.8182 3.12582 21.8182 3.42896V14.8588Z" fill="#3A3A3C"/>
<path d="M6.54403 8.00082H13.0895C13.3788 8.00082 13.6563 7.8804 13.8609 7.66605C14.0655 7.45169 14.1804 7.16097 14.1804 6.85783C14.1804 6.55469 14.0655 6.26397 13.8609 6.04962C13.6563 5.83527 13.3788 5.71484 13.0895 5.71484H6.54403C6.25471 5.71484 5.97723 5.83527 5.77265 6.04962C5.56806 6.26397 5.45312 6.55469 5.45312 6.85783C5.45312 7.16097 5.56806 7.45169 5.77265 7.66605C5.97723 7.8804 6.25471 8.00082 6.54403 8.00082ZM17.4531 10.2868H6.54403C6.25471 10.2868 5.97723 10.4072 5.77265 10.6216C5.56806 10.8359 5.45312 11.1266 5.45312 11.4298C5.45312 11.7329 5.56806 12.0236 5.77265 12.238C5.97723 12.4523 6.25471 12.5728 6.54403 12.5728H17.4531C17.7425 12.5728 18.0199 12.4523 18.2245 12.238C18.4291 12.0236 18.544 11.7329 18.544 11.4298C18.544 11.1266 18.4291 10.8359 18.2245 10.6216C18.0199 10.4072 17.7425 10.2868 17.4531 10.2868Z" fill="#3A3A3C"/>
</g>
<defs>
<clipPath id="clip0_1889_9416">
<rect width="24" height="24" fill="white"/>
</clipPath>
</defs>
</svg>
