<svg width="24" height="24" viewBox="0 0 24 24" fill="none" xmlns="http://www.w3.org/2000/svg">
<path fill-rule="evenodd" clip-rule="evenodd" d="M6.2 3.2H5.4C4.7632 3.2 4.1528 3.4528 3.7032 3.9032C3.2528 4.3528 3 4.9632 3 5.6C3 9.216 3 17.984 3 21.6C3 22.2368 3.2528 22.8472 3.7032 23.2968C4.1528 23.7472 4.7632 24 5.4 24C8.4656 24 15.1344 24 18.2 24C18.8368 24 19.4472 23.7472 19.8968 23.2968C20.3472 22.8472 20.6 22.2368 20.6 21.6C20.6 17.984 20.6 9.216 20.6 5.6C20.6 4.2744 19.5256 3.2 18.2 3.2H17.4C17.4 2.316 16.684 1.6 15.8 1.6H14.2C14.2 0.716 13.484 0 12.6 0H11C10.116 0 9.4 0.716 9.4 1.6H7.8C6.916 1.6 6.2 2.316 6.2 3.2ZM6.2 4.8H5.4C5.188 4.8 4.984 4.884 4.8344 5.0344C4.684 5.184 4.6 5.388 4.6 5.6V21.6C4.6 21.812 4.684 22.016 4.8344 22.1656C4.984 22.316 5.188 22.4 5.4 22.4H18.2C18.412 22.4 18.616 22.316 18.7656 22.1656C18.916 22.016 19 21.812 19 21.6V5.6C19 5.1584 18.6416 4.8 18.2 4.8H17.4V5.6C17.4 6.0416 17.0416 6.4 16.6 6.4H7C6.5584 6.4 6.2 6.0416 6.2 5.6V4.8ZM11.2344 19.7656L12.8344 21.3656C13.1464 21.6784 13.6536 21.6784 13.9656 21.3656L16.3656 18.9656C16.6776 18.6536 16.6776 18.1464 16.3656 17.8344C16.0536 17.5224 15.5464 17.5224 15.2344 17.8344L13.4 19.6688L12.3656 18.6344C12.0536 18.3224 11.5464 18.3224 11.2344 18.6344C10.9224 18.9464 10.9224 19.4536 11.2344 19.7656ZM7.8 16H15.8C16.2416 16 16.6 15.6416 16.6 15.2C16.6 14.7584 16.2416 14.4 15.8 14.4H7.8C7.3584 14.4 7 14.7584 7 15.2C7 15.6416 7.3584 16 7.8 16ZM7.8 12.8H15.8C16.2416 12.8 16.6 12.4416 16.6 12C16.6 11.5584 16.2416 11.2 15.8 11.2H7.8C7.3584 11.2 7 11.5584 7 12C7 12.4416 7.3584 12.8 7.8 12.8ZM7.8 9.6H15.8C16.2416 9.6 16.6 9.2416 16.6 8.8C16.6 8.3584 16.2416 8 15.8 8H7.8C7.3584 8 7 8.3584 7 8.8C7 9.2416 7.3584 9.6 7.8 9.6ZM11 1.6H12.6V2.4C12.6 2.8416 12.9584 3.2 13.4 3.2H15.8V4.8H7.8V3.2C8.748 3.2 10.2 3.2 10.2 3.2C10.6416 3.2 11 2.8416 11 2.4V1.6Z" fill="#3A3A3C"/>
</svg>
