<svg width="20" height="21" viewBox="0 0 20 21" fill="none" xmlns="http://www.w3.org/2000/svg">
<g clip-path="url(#clip0_1414_5632)">
<path d="M11.7189 0.656216C11.7499 0.663322 11.7809 0.670428 11.8129 0.67775C12.7398 0.894469 13.6441 1.30836 14.4142 1.86715C14.4733 1.90953 14.4733 1.90953 14.5335 1.95276C15.8853 2.95585 16.8642 4.3574 17.3439 5.96872C17.3587 6.01716 17.3735 6.0656 17.3888 6.11551C17.4306 6.26116 17.4667 6.40685 17.5001 6.55465C17.506 6.57999 17.5119 6.60533 17.518 6.63144C17.7251 7.56572 17.7178 8.70926 17.5001 9.64059C17.4882 9.69363 17.4882 9.69363 17.476 9.74775C17.2267 10.8333 16.7873 11.8291 16.1166 12.7222C16.0518 12.8087 15.988 12.8958 15.9244 12.983C15.6663 13.3362 15.4039 13.6861 15.1411 14.0358C14.975 14.2569 14.8101 14.4789 14.6461 14.7016C14.6237 14.7321 14.6012 14.7627 14.5781 14.7941C14.4657 14.9469 14.3534 15.0999 14.2413 15.2529C13.9732 15.6185 13.7008 15.9805 13.4252 16.3404C13.2671 16.5473 13.1133 16.7563 12.9637 16.9693C12.7884 17.2172 12.6021 17.4568 12.4174 17.6977C12.2724 17.8874 12.1296 18.078 11.9923 18.2734C11.8291 18.5059 11.6574 18.7315 11.4845 18.957C11.3061 19.1898 11.129 19.4231 10.9596 19.6626C10.9444 19.684 10.9292 19.7053 10.9136 19.7274C10.8538 19.8116 10.7941 19.8958 10.7349 19.9804C10.689 20.0457 10.6425 20.1105 10.5959 20.1753C10.5695 20.2125 10.5431 20.2497 10.5159 20.288C10.3946 20.4215 10.2739 20.4878 10.0954 20.5155C10.0639 20.5152 10.0325 20.5149 10.0001 20.5146C9.96873 20.5149 9.93731 20.5152 9.90493 20.5155C9.64184 20.4746 9.5201 20.3372 9.36932 20.1324C9.34546 20.099 9.32161 20.0656 9.29702 20.0312C9.27163 19.9965 9.24624 19.9618 9.22007 19.926C9.16722 19.8537 9.11456 19.7813 9.0621 19.7087C8.96623 19.5763 8.86919 19.4447 8.77205 19.3131C8.70383 19.2208 8.63581 19.1283 8.56781 19.0357C8.42849 18.8465 8.28745 18.6587 8.14618 18.471C7.97102 18.2379 7.79827 18.0031 7.62558 17.7682C7.48064 17.5712 7.33469 17.3751 7.18765 17.1797C7.01876 16.9551 6.85128 16.7296 6.68472 16.5034C6.6618 16.4723 6.63888 16.4411 6.61527 16.4091C6.50072 16.2534 6.38634 16.0976 6.27212 15.9417C6.00412 15.5763 5.73192 15.2146 5.45641 14.8548C5.29839 14.648 5.14452 14.439 4.99492 14.226C4.84576 14.015 4.68854 13.8104 4.5314 13.6054C4.21608 13.1935 3.91222 12.7764 3.6232 12.3457C3.60802 12.3231 3.59284 12.3005 3.57721 12.2773C2.85041 11.1829 2.38736 9.84645 2.37365 8.52472C2.37327 8.49393 2.37289 8.46313 2.3725 8.43141C2.36571 7.7397 2.37784 7.07505 2.53921 6.3984C2.54987 6.35181 2.54987 6.35181 2.56075 6.30428C2.77749 5.37744 3.1914 4.47312 3.75015 3.70309C3.7784 3.66371 3.80665 3.62434 3.83575 3.58377C4.83884 2.23199 6.2404 1.2531 7.85171 0.773403C7.90015 0.758599 7.94859 0.743795 7.9985 0.728542C8.14415 0.686704 8.28986 0.65064 8.43765 0.617153C8.46278 0.611255 8.48792 0.605358 8.51381 0.599281C9.52312 0.373447 10.7188 0.416152 11.7189 0.656216ZM8.22036 1.93551C8.18602 1.94551 8.15167 1.95552 8.11628 1.96582C7.79374 2.06292 7.48962 2.18735 7.18765 2.3359C7.163 2.34788 7.13835 2.35986 7.11296 2.3722C6.60999 2.61945 6.16147 2.92672 5.75134 3.30941C5.67133 3.38396 5.5892 3.45451 5.50552 3.52487C4.64941 4.27845 4.09753 5.35474 3.78921 6.43747C3.77612 6.48284 3.76303 6.5282 3.74954 6.57495C3.61573 7.07542 3.57917 7.56794 3.58169 8.08297C3.58176 8.1131 3.58183 8.14323 3.58191 8.17427C3.58373 8.63214 3.60058 9.07691 3.71109 9.5234C3.718 9.55141 3.72491 9.57942 3.73203 9.60828C4.0351 10.7928 4.6646 11.745 5.39545 12.7074C5.51324 12.8634 5.62906 13.0207 5.74478 13.1782C5.77846 13.224 5.77846 13.224 5.81283 13.2707C5.92525 13.4235 6.03747 13.5764 6.14959 13.7295C6.41776 14.0951 6.6901 14.457 6.96577 14.817C7.12379 15.0239 7.27765 15.2328 7.42725 15.4458C7.57641 15.6568 7.73362 15.8614 7.89077 16.0664C8.08016 16.3135 8.26667 16.5616 8.44593 16.8162C8.60995 17.0481 8.78127 17.2746 8.95218 17.5015C9.15034 17.7648 9.34639 18.0296 9.54143 18.2952C9.68019 18.4841 9.82008 18.6721 9.96109 18.8593C10.093 18.8154 10.1116 18.7894 10.1901 18.6802C10.2116 18.6507 10.2331 18.6211 10.2552 18.5907C10.2782 18.5585 10.3012 18.5263 10.3249 18.4931C10.3744 18.4248 10.4239 18.3565 10.4735 18.2882C10.5114 18.2356 10.5114 18.2356 10.55 18.182C10.6644 18.0238 10.7802 17.8666 10.8961 17.7094C10.9298 17.6638 10.9298 17.6638 10.9641 17.6171C11.1542 17.3593 11.3464 17.103 11.5389 16.847C11.705 16.6258 11.8699 16.4039 12.0338 16.1811C12.0563 16.1506 12.0788 16.1201 12.1019 16.0886C12.2143 15.9358 12.3265 15.7829 12.4387 15.6298C12.7068 15.2643 12.9792 14.9023 13.2548 14.5423C13.4128 14.3355 13.5667 14.1265 13.7163 13.9135C13.8655 13.7025 14.0227 13.4979 14.1798 13.2929C14.3727 13.0413 14.5633 12.7888 14.7457 12.5295C14.8246 12.4174 14.9045 12.3065 14.987 12.1971C15.8792 11.0121 16.412 9.70642 16.4158 8.20999C16.4162 8.12102 16.4174 8.03209 16.4186 7.94313C16.4226 7.39133 16.3375 6.86738 16.1818 6.33737C16.1668 6.28585 16.1668 6.28585 16.1515 6.23328C16.0544 5.91075 15.93 5.60662 15.7814 5.30465C15.7634 5.26768 15.7634 5.26768 15.7451 5.22996C15.4978 4.727 15.1906 4.27847 14.8079 3.86834C14.7333 3.78833 14.6628 3.7062 14.5924 3.62252C13.8389 2.76642 12.7626 2.21454 11.6798 1.90622C11.6345 1.89312 11.5891 1.88003 11.5424 1.86654C11.0646 1.73881 10.5929 1.69717 10.1006 1.69857C10.0106 1.6987 9.92054 1.69778 9.83047 1.69679C9.27759 1.6944 8.75141 1.77947 8.22036 1.93551Z" fill="#6B7588"/>
<path d="M10.8211 3.00004C11.2977 3.28888 11.6011 3.67788 11.7586 4.21098C11.7675 4.32723 11.7675 4.32723 11.7662 4.44749C11.7658 4.51245 11.7658 4.51245 11.7655 4.57872C11.7645 4.64564 11.7645 4.64564 11.7635 4.71391C11.7631 4.75943 11.7628 4.80495 11.7624 4.85185C11.7615 4.96375 11.7602 5.07564 11.7586 5.18754C11.7996 5.18631 11.7996 5.18631 11.8414 5.18506C11.9676 5.18178 12.0938 5.17977 12.22 5.17778C12.263 5.17647 12.306 5.17516 12.3502 5.17381C12.8491 5.16792 13.2209 5.32797 13.5945 5.65629C13.779 5.85239 13.9224 6.07099 14.0242 6.32035C14.0442 6.36799 14.0442 6.36799 14.0646 6.41658C14.1154 6.60252 14.1139 6.77704 14.1137 6.96896C14.114 7.01021 14.1142 7.05147 14.1145 7.09397C14.1152 7.23013 14.1154 7.36629 14.1155 7.50245C14.1157 7.59743 14.116 7.6924 14.1163 7.78737C14.1167 7.98646 14.1169 8.18554 14.1168 8.38463C14.1168 8.639 14.1179 8.89336 14.1192 9.14773C14.1201 9.34394 14.1202 9.54015 14.1202 9.73637C14.1203 9.8301 14.1206 9.92384 14.1212 10.0176C14.122 10.1491 14.1218 10.2806 14.1213 10.4121C14.1218 10.4504 14.1222 10.4886 14.1226 10.5281C14.1185 10.9932 13.9378 11.3648 13.6336 11.711C13.3249 12.0014 12.9342 12.2278 12.5022 12.2292C12.4565 12.2296 12.4108 12.2299 12.3637 12.2302C12.3141 12.2302 12.2645 12.2302 12.2133 12.2301C12.1601 12.2304 12.1069 12.2306 12.0537 12.2309C11.9095 12.2316 11.7654 12.2318 11.6212 12.2319C11.531 12.2319 11.4408 12.2321 11.3505 12.2323C11.0352 12.233 10.7199 12.2333 10.4046 12.2333C10.1115 12.2332 9.81844 12.234 9.52537 12.2353C9.2731 12.2363 9.02084 12.2367 8.76857 12.2367C8.6182 12.2367 8.46783 12.2369 8.31746 12.2377C8.17583 12.2385 8.03423 12.2385 7.8926 12.2379C7.8165 12.2378 7.74041 12.2384 7.66431 12.2391C7.16158 12.2355 6.7846 12.0818 6.40703 11.75C6.22257 11.5539 6.07911 11.3353 5.97734 11.086C5.96402 11.0542 5.9507 11.0225 5.93697 10.9898C5.88615 10.8038 5.88769 10.6293 5.88787 10.4374C5.8876 10.3961 5.88734 10.3549 5.88707 10.3124C5.88633 10.1762 5.88618 10.04 5.88609 9.90388C5.88584 9.80891 5.88558 9.71394 5.8853 9.61896C5.88484 9.41988 5.88469 9.22079 5.88474 9.0217C5.88475 8.76733 5.88368 8.51298 5.88233 8.25861C5.88146 8.06239 5.88131 7.86618 5.88135 7.66997C5.88126 7.57623 5.88091 7.48249 5.88031 7.38876C5.87954 7.25724 5.87977 7.12575 5.88024 6.99423C5.8798 6.95596 5.87936 6.9177 5.87891 6.87827C5.88309 6.41316 6.06376 6.04155 6.36796 5.69535C6.67726 5.40442 7.06962 5.17545 7.50291 5.17991C7.54622 5.18016 7.58952 5.18042 7.63414 5.18068C7.67875 5.18133 7.72337 5.18198 7.76933 5.18266C7.83761 5.18319 7.83761 5.18319 7.90727 5.18373C8.01918 5.18464 8.13107 5.18593 8.24296 5.18754C8.24215 5.16021 8.24133 5.13288 8.24049 5.10472C8.2372 4.97852 8.23519 4.85234 8.2332 4.72612C8.23189 4.68314 8.23058 4.64016 8.22923 4.59588C8.22335 4.09704 8.38339 3.72526 8.71171 3.3516C8.90781 3.16714 9.12641 3.02369 9.37578 2.92192C9.40972 2.90797 9.44365 2.89402 9.47862 2.87965C9.89578 2.76592 10.4427 2.7858 10.8211 3.00004ZM9.57109 4.21098C9.35069 4.50737 9.41484 4.81799 9.41484 5.18754C9.80156 5.18754 10.1883 5.18754 10.5867 5.18754C10.6225 4.66319 10.6225 4.66319 10.4134 4.2183C10.2332 4.06446 10.134 4.03733 9.90343 4.04237C9.75889 4.06061 9.67819 4.11432 9.57109 4.21098ZM7.27373 6.53276C7.00354 6.84926 7.07109 7.09101 7.07109 7.53129C9.00468 7.53129 10.9383 7.53129 12.9305 7.53129C12.9662 7.00694 12.9662 7.00694 12.7571 6.56205C12.5561 6.39046 12.4038 6.35469 12.1449 6.35419C12.1056 6.35403 12.0663 6.35386 12.0258 6.35369C11.9831 6.35371 11.9404 6.35372 11.8964 6.35374C11.8511 6.35361 11.8058 6.35348 11.7591 6.35335C11.6093 6.35297 11.4595 6.3529 11.3097 6.35286C11.2318 6.35276 11.154 6.35267 11.0762 6.35256C10.8315 6.35225 10.5868 6.35215 10.3421 6.35218C10.0901 6.3522 9.8381 6.35179 9.5861 6.35117C9.36937 6.35066 9.15264 6.35045 8.9359 6.35048C8.80663 6.35049 8.67735 6.35034 8.54807 6.34996C8.4038 6.34958 8.25954 6.34969 8.11527 6.34993C8.07273 6.34971 8.03018 6.34949 7.98635 6.34926C7.60121 6.34942 7.60121 6.34942 7.27373 6.53276ZM7.07109 8.70317C7.06948 8.98757 7.06787 9.27197 7.06621 9.56498C7.0655 9.65426 7.06478 9.74355 7.06405 9.83553C7.06382 9.90694 7.06362 9.97835 7.06346 10.0498C7.06306 10.0863 7.06266 10.1229 7.06225 10.1605C7.06218 10.421 7.06697 10.6395 7.24443 10.8443C7.44544 11.0159 7.59772 11.0516 7.85663 11.0521C7.89594 11.0523 7.93526 11.0525 7.97577 11.0526C8.01847 11.0526 8.06117 11.0526 8.10516 11.0526C8.15047 11.0527 8.19578 11.0529 8.24246 11.053C8.39227 11.0534 8.54207 11.0534 8.69188 11.0535C8.76971 11.0536 8.84754 11.0537 8.92537 11.0538C9.17007 11.0541 9.41476 11.0542 9.65946 11.0542C9.91146 11.0541 10.1635 11.0545 10.4155 11.0552C10.6322 11.0557 10.8489 11.0559 11.0657 11.0559C11.1949 11.0558 11.3242 11.056 11.4535 11.0564C11.5978 11.0568 11.742 11.0566 11.8863 11.0564C11.9501 11.0567 11.9501 11.0567 12.0152 11.0571C12.4003 11.0569 12.4003 11.0569 12.7278 10.8736C12.8944 10.6784 12.9356 10.5294 12.9349 10.2774C12.9349 10.2239 12.9349 10.2239 12.9349 10.1694C12.9347 10.1324 12.9345 10.0955 12.9343 10.0574C12.9342 10.023 12.9342 9.98867 12.9342 9.95327C12.934 9.82547 12.9334 9.69767 12.9329 9.56987C12.9317 9.14085 12.9317 9.14085 12.9305 8.70317C12.157 8.70317 11.3836 8.70317 10.5867 8.70317C10.5738 8.97387 10.5609 9.24457 10.5477 9.52348C10.4065 9.75879 10.4065 9.75879 10.2352 9.83598C10.1204 9.85154 10.1204 9.85154 10.0008 9.85063C9.9613 9.85093 9.92182 9.85123 9.88115 9.85154C9.74747 9.83341 9.67759 9.80119 9.57109 9.71879C9.4539 9.52348 9.4539 9.52348 9.41484 8.70317C8.6414 8.70317 7.86796 8.70317 7.07109 8.70317Z" fill="#6B7588"/>
</g>
<defs>
<clipPath id="clip0_1414_5632">
<rect width="20" height="20" fill="white" transform="translate(0 0.5)"/>
</clipPath>
</defs>
</svg>
