<svg width="24" height="24" viewBox="0 0 24 24" fill="none" xmlns="http://www.w3.org/2000/svg">
<path d="M13.2805 17.5928C13.7605 17.9552 14.1584 18.4176 14.2502 19.0312C14.3172 19.849 14.1948 20.454 13.657 21.0921C13.2817 21.4966 12.7995 21.7344 12.2507 21.7648C11.4685 21.791 10.9066 21.6192 10.3245 21.0791C9.85605 20.5842 9.72614 20.0429 9.73058 19.3814C9.74983 18.7194 10.0239 18.2002 10.5032 17.7466C11.284 17.1043 12.4344 17.0312 13.2805 17.5928Z" fill="#3A3A3C"/>
<path d="M13.2805 10.0928C13.7605 10.4552 14.1584 10.9176 14.2502 11.5312C14.3172 12.349 14.1948 12.954 13.657 13.5921C13.2817 13.9966 12.7995 14.2344 12.2507 14.2648C11.4685 14.291 10.9066 14.1192 10.3245 13.5791C9.85605 13.0842 9.72614 12.5429 9.73058 11.8814C9.74983 11.2194 10.0239 10.7002 10.5032 10.2466C11.284 9.60429 12.4344 9.53122 13.2805 10.0928Z" fill="#3A3A3C"/>
<path d="M13.2805 2.59276C13.7605 2.95522 14.1584 3.4176 14.2502 4.03124C14.3172 4.84901 14.1948 5.45404 13.657 6.09209C13.2817 6.49657 12.7995 6.73439 12.2507 6.76482C11.4685 6.79103 10.9066 6.61922 10.3245 6.07909C9.85605 5.58416 9.72614 5.04288 9.73058 4.38138C9.74983 3.71939 10.0239 3.20021 10.5032 2.74657C11.284 2.10429 12.4344 2.03122 13.2805 2.59276Z" fill="#3A3A3C"/>
</svg>
